<?xml version="1.0" encoding="UTF-8" standalone="no"?>
<!-- Created with Inkscape (http://www.inkscape.org/) -->

<svg
   version="1.1"
   id="svg1"
   width="2560"
   height="1920"
   viewBox="0 0 2560 1920"
   sodipodi:docname="icon_no_black.svg"
   inkscape:version="1.3.2 (091e20e, 2023-11-25, custom)"
   xml:space="preserve"
   xmlns:inkscape="http://www.inkscape.org/namespaces/inkscape"
   xmlns:sodipodi="http://sodipodi.sourceforge.net/DTD/sodipodi-0.dtd"
   xmlns="http://www.w3.org/2000/svg"
   xmlns:svg="http://www.w3.org/2000/svg"><defs
     id="defs1"><clipPath
       clipPathUnits="userSpaceOnUse"
       id="clipPath5"><g
         inkscape:label="Clip"
         id="use5"><rect
           style="fill:#26a269;fill-opacity:1;stroke:#000000;stroke-width:5.111;stroke-opacity:0;paint-order:fill markers stroke"
           id="rect5"
           width="2367.7874"
           height="810.83942"
           x="109.02043"
           y="548.50903" /></g></clipPath></defs><sodipodi:namedview
     id="namedview1"
     pagecolor="#505050"
     bordercolor="#eeeeee"
     borderopacity="1"
     inkscape:showpageshadow="0"
     inkscape:pageopacity="0"
     inkscape:pagecheckerboard="0"
     inkscape:deskcolor="#505050"
     inkscape:zoom="0.29352297"
     inkscape:cx="1366.1622"
     inkscape:cy="1051.0251"
     inkscape:window-width="1920"
     inkscape:window-height="1009"
     inkscape:window-x="-8"
     inkscape:window-y="-8"
     inkscape:window-maximized="1"
     inkscape:current-layer="g1" /><g
     inkscape:groupmode="layer"
     inkscape:label="Image"
     id="g1"><g
       id="g21"
       style="fill:#ff20b1;fill-opacity:1"><path
         style="fill:#ff20b1;fill-opacity:1;stroke:#000000;stroke-width:8.7063;stroke-opacity:0;paint-order:fill markers stroke"
         d="m 321.25036,1186.3139 c -17.57538,-13.3049 -35.16306,-39.9521 -42.64313,-64.6088 -10.58489,-34.8911 -10.23147,-93.4197 0.77936,-129.06856 2.28654,-7.40295 2.88833,-11.77917 1.77314,-12.89434 -1.11518,-1.11518 -10.52379,6.93683 -27.72216,23.725 -19.21574,18.7574 -28.93308,26.9318 -37.1033,31.2119 -6.08808,3.1894 -13.10395,7.2138 -15.59082,8.9431 -5.75543,4.0023 -15.39506,4.0854 -18.93075,0.1632 -3.3669,-3.7349 -8.00373,-16.8642 -8.0366,-22.7558 -0.0627,-11.2394 28.95147,-77.04094 47.72172,-108.22864 4.65693,-7.73771 8.46715,-14.87238 8.46715,-15.85481 0,-0.98242 0.6135,-1.78623 1.36333,-1.78623 0.74984,0 7.40249,-8.62368 14.78367,-19.16374 20.11478,-28.72318 34.30632,-45.29381 64.58578,-75.41306 39.73225,-39.52204 76.69012,-66.3213 110.40859,-80.06059 14.91396,-6.07699 32.00777,-11.03802 38.03282,-11.03802 5.16482,0 10.13072,6.23709 13.56263,17.03444 1.63787,5.15292 3.65025,10.09716 4.47197,10.98721 0.82173,0.89005 1.49406,5.27803 1.49406,9.75106 0,7.28938 -0.52298,8.40323 -5.04291,10.74058 -2.7736,1.43428 -10.24746,3.79681 -16.60858,5.25007 -32.68107,7.46629 -54.88651,17.22683 -88.22066,38.77795 -56.96322,36.82774 -98.62998,80.10476 -125.7501,130.60987 -9.08383,16.91659 -20.33771,42.7106 -19.15191,43.8964 0.45219,0.45219 6.02761,-3.95891 12.38982,-9.80245 6.36221,-5.84355 17.31677,-14.048 24.34348,-18.23212 12.68129,-7.55122 12.87113,-7.6016 25.65412,-6.80758 20.62925,1.28139 35.17933,11.91943 38.88983,28.43366 1.70714,7.59792 0.80792,11.38384 -6.72333,28.30655 -3.26975,7.34715 -9.99992,30.61445 -13.48874,46.63285 -1.26535,5.8097 -1.82279,19.4379 -1.46731,35.873 l 0.57326,26.504 6.65736,13.458 c 5.56754,11.2548 9.95952,16.7426 26.82925,33.5228 19.71871,19.6141 20.17188,20.2348 20.17188,27.6283 0,10.3922 -2.97079,12.917 -15.19864,12.917 -9.19866,0 -10.59525,-0.568 -21.27428,-8.6522 z"
         id="path7" /><path
         style="fill:#ff20b1;fill-opacity:1;stroke:#000000;stroke-width:8.7063;stroke-opacity:0;paint-order:fill markers stroke"
         d="m 587.68825,1174.4658 c -37.86655,-4.4959 -80.67216,-35.3652 -103.85152,-74.8926 -8.25274,-14.0732 -24.30912,-62.0921 -28.19477,-84.3205 -3.53458,-20.22 -3.88662,-21.29301 -6.98584,-21.29301 -1.31565,0 -11.24331,2.68292 -22.06147,5.96205 -20.57488,6.23656 -34.7263,7.60376 -37.99068,3.67036 -1.04605,-1.2604 -2.38323,-4.69824 -2.97151,-7.63966 -0.90427,-4.52135 -0.23549,-6.12722 4.3265,-10.38876 4.78563,-4.47045 33.38338,-22.74546 59.66276,-38.12667 9.27602,-5.42922 9.28602,-5.44425 17.2244,-25.8737 14.8567,-38.23379 18.2899,-43.44936 28.5817,-43.42008 5.1622,0.0147 8.78891,2.07224 21.05372,11.94452 8.14947,6.55974 15.2283,12.59192 15.73072,13.40486 0.50243,0.81293 15.0304,-4.63528 32.28439,-12.10715 l 31.3709,-13.58522 1.05912,-24.96319 c 1.07181,-25.26245 2.63114,-51.508 6.30639,-106.145 1.51046,-22.45485 1.53804,-32.49464 0.10883,-39.61122 -1.05295,-5.243 -1.48271,-10.65782 -0.95503,-12.03293 1.24695,-3.2495 28.17214,-17.92883 32.8855,-17.92883 1.99202,0 8.28034,-1.96073 13.97403,-4.35717 9.8138,-4.13057 10.51984,-4.20543 13.57623,-1.43943 2.98762,2.70375 3.22406,5.83231 3.22406,42.65961 0,41.88279 -2.81542,79.51081 -8.52167,113.8918 -3.76395,22.67829 -4.08833,27.48185 -1.94533,28.80629 0.8014,0.49531 8.56863,-1.04816 17.26049,-3.42993 41.79671,-11.45319 77.9029,-14.214 96.22756,-7.35788 19.06815,7.13434 24.73726,15.2667 24.73726,35.48578 0,12.73146 -0.48895,14.59276 -7.32189,27.87186 -4.02705,7.82615 -12.90324,21.62258 -19.72487,30.65875 -12.48517,16.5383 -64.78448,71.74755 -80.16251,84.62275 -7.63206,6.3899 -8.77713,6.8213 -14.83559,5.5892 -6.24074,-1.2691 -6.7516,-1.8799 -10.33762,-12.3601 -4.99435,-14.5961 -5.29119,-31.45001 -0.59815,-33.96165 6.24386,-3.34161 10.23988,-2.07352 13.23087,4.19868 1.56371,3.27913 3.85936,5.96206 5.10144,5.96206 5.67632,0 57.02954,-55.14688 72.2866,-77.62664 8.6261,-12.70974 8.19843,-15.99844 -2.51175,-19.31494 -7.47945,-2.31607 -9.94384,-2.26884 -26.40338,0.50614 -18.82144,3.17316 -67.01829,16.39124 -75.20649,20.62551 -3.8375,1.98446 -4.84512,3.88176 -5.61957,10.58128 -5.65329,48.90522 -14.50657,92.49186 -20.70988,101.95926 -1.49627,2.2836 -3.88549,4.152 -5.30936,4.152 -1.4239,0 -6.19715,3.2924 -10.60727,7.3164 -4.41011,4.0239 -9.63357,8.4316 -11.60771,9.7948 -1.97412,1.3631 -8.45153,6.1196 -14.39424,10.5698 -5.9427,4.4503 -12.14118,8.0914 -13.77439,8.0914 -4.60471,0 -8.18621,-6.3121 -6.60834,-11.6467 2.60138,-8.795 7.40966,-19.9004 9.85238,-22.7557 6.00818,-7.0227 25.44341,-91.03222 21.88347,-94.59215 -1.47128,-1.47128 -18.29048,4.2928 -49.52945,16.97421 -21.87055,8.8783 -22.1115,9.03577 -24.14317,15.77865 -2.47478,8.21351 -3.07594,74.60159 -0.74193,81.93409 0.86462,2.7162 2.08127,8.0048 2.70367,11.7524 1.68475,10.1443 28.84788,36.4848 47.67933,46.2352 24.63186,12.7538 36.91435,16.0205 79.21016,21.0665 33.37696,3.982 81.80794,-7.1347 112.88331,-25.9109 12.66187,-7.6505 29.01502,-20.7766 36.54162,-29.3307 8.92857,-10.1474 21.55785,-34.9527 26.08786,-51.2393 3.24952,-11.683 3.65467,-16.3014 2.83926,-32.36545 -0.52312,-10.30584 -2.30879,-24.31636 -3.96819,-31.13448 l -3.01704,-12.39659 4.47386,-4.47386 4.47386,-4.47386 10.7718,10.26635 c 9.01045,8.58766 12.06278,10.45324 18.66697,11.40923 4.49261,0.65031 9.19471,2.57881 10.91054,4.47478 1.65846,1.83256 4.00291,3.33194 5.20992,3.33194 6.90723,0 10.055,19.07288 4.81887,29.19844 -4.38282,8.4754 -34.60463,54.2795 -43.10293,65.3266 -47.68777,61.9903 -86.18123,86.6613 -156.65598,100.4027 -35.51514,6.9249 -64.61943,8.8967 -88.85083,6.0197 z"
         id="path8" /><path
         style="fill:#ff20b1;fill-opacity:1;stroke:#000000;stroke-width:8.7063;stroke-opacity:0;paint-order:fill markers stroke"
         d="m 958.14504,1194.1904 c -18.16497,-4.6244 -39.99963,-13.067 -48.90006,-18.9078 -7.11899,-4.6717 -9.50751,-10.8435 -6.63575,-17.1463 1.0558,-2.3173 1.91964,-6.1811 1.91964,-8.5864 0,-2.4054 3.64111,-10.5259 8.09136,-18.0457 14.09608,-23.8188 41.06555,-52.082 80.05717,-83.8976 l 20.8625,-17.0229 v -9.4662 c 0.014,-28.87165 19.0044,-98.51315 40.9302,-150.10197 30.3195,-71.33814 48.4424,-106.83037 62.6494,-122.69385 4.4463,-4.96479 10.2124,-11.90146 12.8136,-15.41482 5.5715,-7.52527 8.5706,-7.86378 19.7008,-2.22366 16.4336,8.32753 24.0344,17.54363 24.0344,29.14201 0,5.44196 -1.4527,7.63743 -11.6096,17.54489 -6.3854,6.22851 -14.5891,16.30713 -18.2305,22.39695 -3.6415,6.08981 -15.125,23.72046 -25.519,39.17921 -17.9134,26.64233 -26.6415,41.17825 -43.4152,72.30504 -11.8493,21.98859 -33.4829,82.06256 -32.0506,89.0008 0.3978,1.9273 1.8361,1.5205 6.4735,-1.83094 45.7074,-33.03241 70.2486,-45.16955 98.4175,-48.67352 7.237,-0.90022 18.683,-2.56685 25.4357,-3.70363 14.2926,-2.40609 23.8231,-0.45901 30.5167,6.23461 3.4201,3.42007 4.0435,5.71938 4.0058,14.7744 -0.057,13.68056 -3.7517,21.57364 -13.552,28.95109 -5.1191,3.8536 -8.6099,8.25199 -10.5951,13.34959 -12.6586,32.505 -17.8658,44.7667 -28.2955,66.6285 -6.5485,13.7265 -15.815,31.0504 -20.5922,38.4977 -9.7199,15.1525 -10.7034,19.1622 -4.6998,19.1622 6.2054,0 27.9294,-5.9409 43.0589,-11.7755 l 13.7229,-5.2921 6.6495,-12.1306 c 8.4088,-15.3399 12.447,-17.54 19.6298,-10.6949 6.6717,6.358 10.0491,14.4541 10.0491,24.0888 0,6.3428 -0.9326,8.5535 -5.5362,13.1231 -10.7441,10.6647 -42.8896,27.0167 -69.4153,35.3106 -10.9447,3.4221 -16.3279,3.9947 -37.5587,3.9947 h -24.7829 l -7.2817,6.2324 c -18.0837,15.478 -42.5812,21.8983 -82.83497,21.7093 -17.24746,-0.081 -25.54458,-0.9694 -37.51809,-4.0175 z m 50.29396,-11.2559 c 6.0898,-0.9819 18.5218,-4.0942 27.6266,-6.9163 12.7435,-3.95 17.5471,-6.311 20.8672,-10.2567 6.0073,-7.1393 5.5203,-11.6916 -1.783,-16.6659 -8.017,-5.4603 -18.3566,-17.3506 -24.4206,-28.0829 -5.8735,-10.3953 -13.773,-31.974 -13.773,-37.6232 0,-9.4003 -0.3136,-9.1857 -53.88283,36.8808 -21.05871,18.1094 -29.72824,26.6601 -31.14189,30.7153 -1.58723,4.5531 -1.50166,5.9461 0.45086,7.3398 1.32544,0.946 5.9937,4.2271 10.37392,7.2911 4.38022,3.0641 9.2586,7.8267 10.84085,10.5836 2.29917,4.0061 4.58802,5.3266 11.39903,6.5766 11.95144,2.1934 30.40201,2.2604 43.44286,0.1578 z m 99.6202,-64.8409 c 18.5665,-19.6815 31.1583,-41.3455 43.5233,-74.8812 2.8314,-7.6791 6.4285,-16.1297 7.9935,-18.7791 1.5651,-2.6494 2.3351,-5.3276 1.7111,-5.9516 -1.5463,-1.5463 -55.8972,14.9695 -77.5969,23.5798 -24.1216,9.5712 -35.0802,16.2887 -35.7335,21.9043 -0.7775,6.6828 13.704,35.5093 23.0745,45.9315 7.3385,8.1622 21.8615,20.1916 24.5029,20.2957 0.5892,0.023 6.2255,-5.4215 12.5251,-12.0994 z"
         id="path9" /><path
         style="fill:#ff20b1;fill-opacity:1;stroke:#000000;stroke-width:8.7063;stroke-opacity:0;paint-order:fill markers stroke"
         d="m 1400.2311,1245.9684 c -18.8948,-2.5168 -30.662,-8.9682 -30.662,-16.8104 0,-5.4098 7.2111,-18.8569 10.1343,-18.8983 5.0972,-0.072 17.1208,-6.6147 17.1208,-9.3161 0,-4.3817 6.5494,-15.9368 10.1143,-17.8446 5.3221,-2.8484 8.5728,-2.0734 13.9789,3.3328 5.1151,5.1151 19.8897,10.2377 29.5274,10.2377 14.1999,0 63.2982,-18.0986 85.689,-31.5866 15.5516,-9.3682 35.8325,-26.2696 45.7482,-38.125 10.1329,-12.1151 23.0178,-36.712 26.389,-50.376 1.155,-4.6816 5.4109,-14.7886 9.4574,-22.4601 8.5482,-16.2057 9.6584,-25.4956 3.7527,-31.4013 -3.0679,-3.068 -4.9066,-3.4535 -12.3499,-2.5894 -4.81,0.5583 -20.2514,1.7825 -34.3143,2.7205 -46.236,3.0838 -56.7387,5.586 -139.6652,33.2736 -77.0661,25.7309 -102.0476,31.6936 -143.941,34.3561 -13.057,0.8298 -37.7134,-2.3758 -42.8923,-5.5766 -2.6783,-1.6553 -6.6817,-13.3645 -5.7874,-16.9274 0.4871,-1.9408 4.1654,-5.8875 8.1741,-8.7705 21.5497,-15.4981 33.7939,-33.9284 41.3989,-62.31474 5.1002,-19.03677 5.2181,-28.26526 0.8101,-63.40464 -1.8737,-14.93747 -3.4068,-34.74776 -3.4068,-44.0229 0,-16.41983 3.5028,-46.14626 7.0568,-59.8872 3.1081,-12.01685 14.2583,-33.72698 23.4719,-45.70105 4.9227,-6.3977 8.5264,-12.05619 8.0082,-12.57443 -0.5183,-0.51824 -8.7411,0.27434 -18.273,1.76129 -19.2743,3.00675 -26.5726,1.64823 -30.4923,-5.67597 -4.4505,-8.31568 1.4383,-14.46056 27.2628,-28.44838 20.4973,-11.10238 68.8052,-25.25405 106.4353,-31.17997 29.5238,-4.64935 75.9225,-8.94492 104.9359,-9.71493 29.6728,-0.78751 32.0955,-0.61691 38.6378,2.72071 8.7126,4.44485 9.5542,5.7936 5.8828,9.42775 -3.648,3.61099 -20.612,14.62316 -22.5267,14.62316 -0.777,0 -1.6683,0.64966 -1.9806,1.44368 -0.8058,2.04884 -25.3494,13.27372 -35.8266,16.38511 -4.8377,1.43663 -26.0078,4.94475 -47.0448,7.79582 -21.0369,2.85107 -40.7752,6.2393 -43.8629,7.52939 -11.4368,4.77863 -33.2234,20.17768 -41.9708,29.66553 -9.14,9.91382 -22.8945,33.89409 -27.4767,47.90435 -8.8333,27.00809 -10.8954,46.1307 -12.0317,111.57559 -0.8936,51.4658 -2.2623,64.58503 -8.5972,82.40533 -1.4573,4.0996 -2.6497,8.124 -2.6497,8.9431 0,2.7054 5.0755,1.5553 14.9537,-3.3885 12.2546,-6.1331 63.5339,-26.5146 73.1995,-29.0939 5.3954,-1.4398 7.2397,-2.7819 7.2397,-5.2683 0,-1.83497 2.5684,-6.21307 5.7075,-9.72914 9.4547,-10.58992 18.1407,-22.68532 18.1407,-25.26119 0,-1.9846 -4.4058,-2.42177 -24.2741,-2.40862 -19.9204,0.0132 -27.1241,0.74177 -40.1642,4.06229 l -15.8901,4.04624 -4.3436,-3.73625 c -6.7555,-5.81084 -4.1843,-9.79201 11.6415,-18.02552 9.1199,-4.74467 18.6993,-11.78785 28.5933,-21.02302 13.6525,-12.74328 25.471,-22.15106 45.5262,-36.23994 12.3056,-8.64472 17.6489,-14.06854 17.6489,-17.91499 0,-3.1489 -0.716,-3.48787 -5.5362,-2.62102 -3.0449,0.54759 -14.3515,2.54316 -25.1258,4.43459 -22.8901,4.0184 -35.1717,8.38349 -46.5324,16.53851 -9.7049,6.96637 -13.7246,6.46109 -16.5433,-2.07948 -2.5715,-7.79169 -0.046,-11.68258 14.0695,-21.67384 18.7334,-13.26016 37.855,-23.36043 56.8936,-30.05195 l 18.516,-6.50779 2.0009,-14.24796 c 3.0938,-22.03027 2.7657,-31.71257 -1.3637,-40.24279 -3.0139,-6.22581 -3.2896,-8.20912 -1.6436,-11.82172 1.8287,-4.01366 2.5832,-4.26148 10.0093,-3.28769 6.3758,0.83605 9.085,0.35521 13.1418,-2.33243 6.2295,-4.12701 18.9441,-4.52238 24.321,-0.75629 5.031,3.52389 4.8313,6.93304 -1.9669,33.57344 -3.164,12.39899 -6.1641,25.85289 -6.667,29.89756 -0.8509,6.84465 -0.541,7.5815 4.4752,10.64015 7.178,4.37682 21.3062,4.29999 38.1258,-0.20733 7.1963,-1.92847 14.8477,-3.06369 17.0032,-2.52272 3.4835,0.8743 3.9189,2.00421 3.9189,10.16866 0,8.07385 -0.6062,9.69515 -5.0107,13.4013 -2.7559,2.31892 -9.0799,5.10904 -14.0534,6.20026 -21.8015,4.7834 -24.1156,5.7753 -31.945,13.69282 -12.8635,13.0082 -19.0765,21.94394 -21.4112,30.7944 -2.7183,10.3046 -1.6857,15.22808 3.2036,15.27585 1.9988,0.0195 8.5956,1.07458 14.6596,2.34458 9.7763,2.04747 12.6711,1.96777 25.5516,-0.70364 7.9894,-1.65699 18.579,-4.62843 23.5324,-6.60318 4.9533,-1.97477 9.361,-3.59049 9.7948,-3.59049 2.0798,0 0.3352,8.56787 -3.3612,16.50706 -7.6826,16.50077 -23.2545,24.06927 -59.1922,28.76974 l -23.3111,3.04898 -2.5226,6.92498 c -5.737,15.74893 -6.8131,19.67266 -5.7003,20.78546 0.6437,0.64366 7.8813,0.23293 16.0836,-0.91276 8.2023,-1.14569 20.6624,-2.88018 27.6891,-3.85445 17.5888,-2.43875 74.0048,-0.951 91.986,2.42577 7.9636,1.49551 18.312,3.21241 22.9965,3.81532 7.6614,0.98604 9.5702,2.18776 18.9963,11.95894 8.3963,8.7037 11.2287,13.115 14.25,22.1942 4.2938,12.9028 4.0716,19.0401 -1.6505,45.5877 -4.4561,20.6738 -7.4311,28.3853 -15.5662,40.3486 -7.6713,11.2813 -34.8708,38.2398 -46.6916,46.278 -4.6845,3.1855 -13.2861,9.3288 -19.1148,13.6518 -5.8287,4.323 -15.7939,10.7571 -22.1448,14.2979 -6.3509,3.5409 -20.7407,12.1931 -31.9773,19.2271 -46.1523,28.8914 -93.6249,46.0198 -118.4006,42.7197 z m 40.5385,-309.13513 c 6.9787,-2.7923 8.7934,-5.84031 8.8382,-14.8441 0.027,-5.54417 -1.1012,-5.81541 -5.8291,-1.40083 -1.9341,1.80599 -8.1113,5.86058 -13.7269,9.01018 -5.6934,3.19321 -10.4803,7.12859 -10.8206,8.89586 -0.545,2.82973 0.2108,3.05678 7.0529,2.11897 4.2148,-0.57771 10.7333,-2.27875 14.4855,-3.78008 z"
         id="path10" /><path
         style="fill:#ff20b1;fill-opacity:1;stroke:#000000;stroke-width:8.7063;stroke-opacity:0;paint-order:fill markers stroke"
         d="m 1246.4773,1185.5404 c -2.5666,-2.5665 -4.6665,-5.958 -4.6665,-7.5366 0,-1.5786 4.562,-9.9849 10.1377,-18.6806 6.8409,-10.6689 10.8087,-18.9387 12.2013,-25.4302 3.1082,-14.4891 3.9694,-15.5858 12.2157,-15.5558 3.9488,0.014 8.0899,0.6049 9.2024,1.3122 3.2002,2.0349 5.8764,10.7546 4.8021,15.646 -0.6356,2.8937 0.5996,8.0418 3.505,14.6092 4.2284,9.5576 4.3643,10.6798 2.3641,19.5098 -3.42,15.0972 -4.7659,16.4049 -18.1139,17.5999 -6.388,0.5719 -15.072,1.5242 -19.2979,2.1162 -6.8422,0.9585 -8.1945,0.5654 -12.35,-3.5901 z"
         id="path11" /><path
         style="fill:#ff20b1;fill-opacity:1;stroke:#000000;stroke-width:8.7063;stroke-opacity:0;paint-order:fill markers stroke"
         d="m 1358.4967,1158.1954 c -13.0272,-10.9176 -29.6428,-21.4355 -40.2896,-25.5039 -11.0237,-4.2124 -11.665,-4.7539 -11.6575,-9.8448 0.01,-3.6495 1.6817,-7.1732 5.1967,-10.9235 6.6547,-7.1003 11.8369,-7.1579 33.036,-0.3672 28.3137,9.0697 45.13,23.7373 45.2001,39.4247 0.041,9.1549 -3.3551,11.6314 -15.8505,11.5587 -8.6983,-0.051 -11.4117,-0.8045 -15.6352,-4.344 z"
         id="path12" /><path
         style="fill:#ff20b1;fill-opacity:1;stroke:#000000;stroke-width:8.7063;stroke-opacity:0;paint-order:fill markers stroke"
         d="m 1432.5966,1148.6856 c -15.5103,-6.4115 -14.6131,-5.4958 -18.8214,-19.2113 -3.5961,-11.7206 -4.6334,-13.3391 -10.7369,-16.7531 -9.0051,-5.037 -10.8563,-8.2299 -8.1789,-14.1063 l 2.1095,-4.6298 13.748,1.1466 c 7.5614,0.6306 15.7692,2.2058 18.2397,3.5004 16.213,8.4965 31.1467,39.8892 23.169,48.7045 -3.3425,3.6934 -12.3521,4.3157 -19.529,1.349 z"
         id="path13" /><path
         style="fill:#ff20b1;fill-opacity:1;stroke:#000000;stroke-width:8.7063;stroke-opacity:0;paint-order:fill markers stroke"
         d="m 1491.0042,1115.3686 c -3.8497,-1.9171 -7.2578,-6.124 -11.4982,-14.1936 -7.763,-14.773 -7.7422,-17.8737 0.1419,-21.1679 6.0313,-2.5201 6.6216,-2.3978 26.5001,5.4871 22.4462,8.9034 32.0621,15.4441 32.0621,21.8086 0,5.7893 -5.5732,8.2163 -16.0422,6.9859 -6.0644,-0.7128 -10.1636,-0.259 -13.5548,1.5003 -6.0911,3.1602 -10.6365,3.0516 -17.6089,-0.4204 z"
         id="path14" /><path
         style="fill:#ff20b1;fill-opacity:1;stroke:#000000;stroke-width:6.15629;stroke-opacity:0;paint-order:fill markers stroke"
         d="m 1673.7028,1012.0954 c -4.9475,-4.2988 -5.1824,-9.9505 -0.7764,-18.6788 5.4613,-10.81877 14.9238,-26.12325 31.5508,-51.02984 23.6969,-35.4971 44.1284,-61.72886 73.532,-94.40683 15.928,-17.70187 62.684,-64.21872 74.5286,-74.14743 4.301,-3.60537 16.6906,-14.41468 27.5324,-24.02071 10.8418,-9.60602 20.9889,-18.44456 22.5491,-19.6412 1.5603,-1.19664 8.8634,-8.94082 16.2291,-17.20928 25.9697,-29.15224 63.0612,-59.54984 72.5836,-59.48442 12.1672,0.0836 31.6759,18.1789 36.2435,33.61752 2.391,8.08189 2.466,20.22296 0.1789,28.99091 -1.5814,6.06293 -2.8888,7.74866 -15.4131,19.87453 -17.1473,16.60172 -30.7464,26.29952 -51.4877,36.71713 -18.9711,9.52847 -22.9053,11.77353 -54.2033,30.93152 -68.2456,41.77419 -82.6299,52.93559 -133.2225,103.37311 -37.9338,37.81762 -56.9723,59.60834 -77.8936,89.1539 -14.0924,19.90149 -15.8897,21.20939 -21.9314,15.95989 z"
         id="path15" /><path
         style="fill:#ff20b1;fill-opacity:1;stroke:#000000;stroke-width:6.15629;stroke-opacity:0;paint-order:fill markers stroke"
         d="m 1940.9325,1241.9904 c -7.2525,-3.2672 -9.4379,-9.8623 -5.9969,-18.0977 0.9272,-2.2192 4.7215,-8.4674 8.4316,-13.8848 6.9687,-10.1754 8.358,-14.5248 4.6396,-14.5248 -1.1584,0 -8.6113,2.1186 -16.5621,4.708 -23.1239,7.5311 -36.0094,10.2842 -48.1825,10.2946 -21.787,0.019 -49.2786,-8.2052 -66.2484,-19.8175 -2.6499,-1.8133 -7.2719,-4.676 -10.271,-6.3616 -10.1395,-5.6984 -27.0359,-18.9472 -32.8622,-25.7676 -10.9718,-12.8439 -13.9506,-21.9274 -10.9925,-33.5202 2.9113,-11.4097 3.6121,-40.346 1.2228,-50.4926 -3.9388,-16.7268 -9.2553,-56.6084 -9.4065,-70.5613 -0.1301,-12.01329 0.2822,-15.19242 3.1059,-23.95037 2.9852,-9.25854 3.1401,-10.66102 1.8621,-16.86324 -2.672,-12.96728 -2.6593,-14.99437 0.1153,-18.52168 1.8926,-2.40616 3.6723,-3.29962 6.5724,-3.29962 2.1873,0 6.2813,-0.81305 9.0979,-1.80678 2.8165,-0.99372 8.9825,-1.83056 13.7022,-1.85964 4.7197,-0.0291 10.7495,-0.83397 13.3994,-1.78865 2.6772,-0.9645 9.1614,-1.74382 14.5929,-1.75389 11.2594,-0.0209 14.9854,1.92121 17.333,9.03457 1.7852,5.40927 0.051,10.96909 -4.9016,15.71393 -5.6515,5.41449 -10.2034,13.40488 -14.3676,25.22081 -4.1652,11.81849 -4.3032,16.80706 -0.6996,25.29486 l 2.0455,4.8181 3.8394,-4.3185 c 2.1116,-2.3751 8.4466,-9.6292 14.0777,-16.12017 5.6311,-6.49095 15.1167,-16.18336 21.079,-21.5387 5.9624,-5.35533 14.9508,-14.90426 19.9742,-21.21984 15.5291,-19.52346 32.6914,-34.23702 51.9327,-44.52273 11.2543,-6.0161 19.5062,-8.39396 32.3028,-9.30828 19.3763,-1.38444 35.8497,4.98421 49.9842,19.32396 12.8826,13.06976 12.0125,12.73374 15.4117,5.95177 1.6026,-3.19738 3.6094,-7.98155 4.4598,-10.63149 1.8589,-5.79329 28.6392,-63.9656 38.8038,-84.29006 8.9454,-17.88643 14.0627,-26.68172 28.0478,-48.2068 21.6424,-33.31063 35.3835,-50.14068 64.9074,-79.49812 23.0613,-22.93126 35.6755,-33.52866 51.6152,-43.36261 9.1238,-5.62895 10.3581,-6.04908 18.8839,-6.42795 l 9.122,-0.40536 7.4856,6.79158 c 6.876,6.23851 7.4272,7.10528 6.7679,10.64376 -0.3947,2.11869 -1.8123,5.74929 -3.1502,8.06798 -1.3379,2.3187 -25.024,26.98118 -52.6357,54.80553 -82.2144,82.84744 -104.5649,110.56656 -130.6462,162.02798 -14.4293,28.4705 -16.5615,31.94621 -21.4047,34.89154 -3.9086,2.37692 -13.7363,16.43854 -14.9955,21.45566 -0.392,1.56161 -0.1351,4.01709 0.5708,5.45664 1.9015,3.87759 5.8767,22.73121 7.4634,35.39771 4.2035,33.5566 -1.0677,72.9891 -15.5183,116.0875 -6.4526,19.2446 -15.9429,43.3477 -18.2159,46.2639 -0.5164,0.6625 -7.7101,14.2905 -15.9862,30.2845 -14.1648,27.3744 -26.443,47.7581 -34.2077,56.79 -4.0083,4.6623 -9.9288,5.9519 -15.5986,3.3977 z m 18.072,-75.5781 c 0.9906,-1.4143 2.9724,-5.615 4.4039,-9.335 1.4316,-3.72 5.4769,-13.539 8.9897,-21.8201 3.5128,-8.281 8.6647,-20.7478 11.4487,-27.7039 l 5.0617,-12.6474 1.0224,-23.4881 c 0.5624,-12.9184 1.0479,-40.3487 1.079,-60.9562 l 0.057,-37.46823 -3.9147,-6.85808 -3.9147,-6.85807 -15.0564,0.48064 c -23.3958,0.74686 -34.5983,5.76507 -67.0254,30.02447 -11.8286,8.84926 -24.4878,17.92467 -28.1315,20.16757 -3.6436,2.2429 -7.7089,4.9975 -9.0338,6.1213 -1.325,1.1239 -5.2959,2.407 -8.8243,2.8515 -3.5284,0.4445 -11.3371,2.4571 -17.3526,4.4725 -10.4049,3.486 -13.174,3.7378 -18.1509,1.6511 -2.5484,-1.0686 -2.5892,-1.586 2.8035,35.5309 4.7129,32.4377 5.1616,38.835 3.5483,50.5897 -2.8317,20.6318 -2.8242,21.0866 0.4622,28.265 3.3358,7.2864 11.3048,18.1436 18.0698,24.6189 l 4.2845,4.1011 21.4317,-2.6344 c 29.7628,-3.6584 42.763,-5.9342 53.8791,-9.4319 10.5178,-3.3095 9.7935,-3.5297 14.1248,4.2948 4.0839,7.3775 17.1367,11.1741 20.7384,6.0319 z"
         id="path16" /><path
         style="fill:#ff20b1;fill-opacity:1;stroke:#000000;stroke-width:6.15629;stroke-opacity:0;paint-order:fill markers stroke"
         d="m 2188.9025,1264.8064 c -5.7806,-4.8641 -4.8948,-10.8935 2.1346,-14.5285 1.9595,-1.0134 7.9489,-5.7137 13.3096,-10.4453 l 9.7469,-8.6028 -0.8235,-7.0953 c -0.453,-3.9024 -1.4926,-9.6418 -2.3103,-12.7542 -2.9503,-11.2294 0.1775,-13.9363 24.0214,-20.7888 17.7429,-5.0991 23.3853,-8.173 34.9413,-19.0357 5.3812,-5.0583 11.7712,-10.7028 14.2,-12.5433 5.4103,-4.0998 11.6328,-13.1477 20.4791,-29.7779 17.792,-33.4472 28.5619,-67.1332 36.9978,-115.7213 3.2893,-18.94514 3.7553,-24.04815 3.1822,-34.84329 -1.1517,-21.69354 -9.9364,-49.20064 -19.0018,-59.49944 -4.6302,-5.26026 -17.3295,-12.77157 -21.5927,-12.77157 -1.143,0 -2.9259,-1.29377 -3.962,-2.87504 -2.7857,-4.25164 -8.7691,-7.40368 -18.4506,-9.71981 -10.2987,-2.46382 -29.4229,-2.09066 -54.6227,1.06583 -8.9435,1.12026 -24.6625,2.21413 -34.931,2.43083 -15.906,0.33567 -20.2749,0.86557 -29.5106,3.57935 -5.9624,1.75194 -16.532,4.24886 -23.4881,5.54871 -19.3428,3.61447 -21.3574,4.25426 -25.8682,8.21477 -2.3406,2.05505 -6.2003,4.00792 -8.7359,4.42006 -2.4985,0.40609 -5.7878,1.24587 -7.3096,1.86618 -4.7943,1.95431 -11.718,1.34681 -14.0528,-1.23302 -3.8926,-4.30138 -1.6505,-9.47469 8.7122,-20.10204 5.1216,-5.25237 14.2905,-15.24121 20.3753,-22.19742 12.3842,-14.15765 26.5727,-26.65302 36.5151,-32.1577 14.3479,-7.94381 46.6226,-15.06966 67.5594,-14.91626 8.4162,0.0617 25.7182,3.00396 41.4494,7.0487 10.9181,2.8072 13.1159,2.99912 23.4881,2.05093 6.2936,-0.57534 18.2183,-1.02861 26.4994,-1.00725 14.1884,0.0366 15.8163,0.29858 28.2364,4.54434 7.249,2.47803 15.9215,6.07864 19.2723,8.00134 10.3109,5.91649 20.0672,18.13552 24.4046,30.56485 3.1705,9.08556 2.7984,32.90021 -1.1696,74.8601 -1.8169,19.21204 -3.8579,41.16437 -4.5357,48.78295 -1.7653,19.843 -3.9534,31.3801 -10.8584,57.2515 -8.3307,31.2127 -13.0683,44.934 -20.9205,60.5909 -9.1897,18.3239 -27.6918,50.3892 -38.1225,66.0688 -15.4576,23.2362 -51.9106,67.8604 -58.6495,71.7962 -6.8653,4.0095 -16.1173,5.7436 -34.6266,6.4899 l -18.0737,0.7287 z"
         id="path17" /><path
         style="fill:#ff20b1;fill-opacity:1;stroke:#000000;stroke-width:6.15629;stroke-opacity:0;paint-order:fill markers stroke"
         d="m 2152.4718,1066.5173 c -2.3187,-0.5404 -9.6362,-2.1503 -16.261,-3.5777 -21.324,-4.5944 -30.5675,-10.8028 -37.9023,-25.4573 -4.6694,-9.3291 -4.8578,-10.1567 -4.8506,-21.3106 0.01,-7.9386 0.5758,-12.6945 1.8067,-15.0547 2.3489,-4.50381 2.3452,-18.641 -0.01,-27.67301 -2.4123,-9.26164 -2.2886,-11.16311 0.8703,-13.37569 5.5686,-3.90043 9.6345,-2.52326 19.3571,6.55654 4.9656,4.63739 9.7284,8.43162 10.5839,8.43162 0.8555,0 2.8554,-1.21957 4.4442,-2.71016 2.5844,-2.42457 3.9709,-2.68306 13.1575,-2.45292 7.6701,0.19214 11.629,0.91577 15.6443,2.85953 6.0253,2.91678 7.6115,5.81433 7.6115,13.90406 0,2.98161 0.607,6.60504 1.349,8.05208 2.5994,5.06946 8.6892,10.45995 11.8358,10.47675 5.3401,0.029 8.161,1.3006 9.5255,4.2951 2.2383,4.9126 3.016,20.9331 1.3951,28.7403 -1.2729,6.1314 -2.457,8.1734 -8.2785,14.2772 -4.5875,4.8101 -9.2238,8.2249 -14.2799,10.5177 -9.6986,4.398 -10.9647,4.675 -16.0012,3.5012 z"
         id="path18" /><path
         style="fill:#ff20b1;fill-opacity:1;stroke:#000000;stroke-width:6.15629;stroke-opacity:0;paint-order:fill markers stroke"
         d="m 1843.8143,1132.8067 c -4.72,-2.8722 -2.3266,-11.3566 7.4864,-26.5392 7.6086,-11.7721 7.4969,-20.6756 -0.3767,-30.033 -1.5733,-1.8697 -5.104,-7.4871 -7.8459,-12.483 -6.5419,-11.9197 -6.8463,-18.2575 -1.1088,-23.0852 3.5511,-2.9881 4.4863,-3.2037 11.1418,-2.5687 6.9608,0.6641 7.8659,0.4086 21.5942,-6.0958 18.3817,-8.709 24.5303,-9.4879 31.1416,-3.9448 l 4.517,3.7871 v 11.5071 c 0,10.3641 -0.4297,12.5985 -4.3265,22.497 -7.9182,20.1136 -28.9152,61.5213 -31.9964,63.0992 -5.9982,3.0717 -27.0946,5.7652 -30.2267,3.8593 z"
         id="path19" /></g></g></svg>
